# xmcd
#
# Track frame offsets:
#	150
#	17415
#	36759
#	61563
#	89350
#	107535
#	125452
#	139102
#	150882
#	176032
#	195528
#	211932
#	227883
#	241893
#	259712
#	278500
#	296679
#
# Disc length: 4181 seconds
#
# Revision: 1
# Processed by: cddbd v1.5.2PL0 Copyright (c) Steve Scherf et al.
# Submitted via: audiograbber 1.83.01
#
DISCID=da105311
DTITLE=Various Artist - 20 Years Of Being Skint [CD1]
DYEAR=2015
DGENRE=Electronic
TTITLE0=Fatboy Slim - Praise You
TTITLE1=X-Press 2 feat. David Byrne - Lazy
TTITLE2=Midfield General - Devil In Sports Casual (Fatboy Slim's Does My Beat L
TTITLE2=ook Big In This Mix?)
TTITLE3=Hardknox - Fire Like Dis
TTITLE4=Lo-Fidelity Allstars feat. Pigeonhed - Battleflag
TTITLE5=Fatboy Slim - The Rockafeller Skank
TTITLE6=Tiga - Hot In Herre
TTITLE7=Goose - Black Gloves
TTITLE8=Tomas Andersson - Washing Up (Tiga Mix)
TTITLE9=Cut La Roc - Freeze
TTITLE10=Dave Clarke - What Was Her Name?
TTITLE11=Alter Ego - Rocker
TTITLE12=Midfield General - Disco Sirens
TTITLE13=Fatboy Slim - Right Here, Right Now
TTITLE14=Indian Ropeman - 66 Meters
TTITLE15=Space Raiders - Beautiful Crazy
TTITLE16=FC Kahuna feat. Hafdis Huld - Hayling
EXTD=CD1/3
EXTT0=
EXTT1=
EXTT2=
EXTT3=
EXTT4=
EXTT5=
EXTT6=
EXTT7=
EXTT8=
EXTT9=
EXTT10=
EXTT11=
EXTT12=
EXTT13=
EXTT14=
EXTT15=
EXTT16=
PLAYORDER=
